<?xml version="1.0" standalone="no"?>
<!DOCTYPE svg PUBLIC "-//W3C//DTD SVG 20010904//EN"
 "http://www.w3.org/TR/2001/REC-SVG-20010904/DTD/svg10.dtd">
<svg version="1.0" xmlns="http://www.w3.org/2000/svg"
 width="96.000000pt" height="96.000000pt" viewBox="0 0 96.000000 96.000000"
 preserveAspectRatio="xMidYMid meet">
<metadata>
Created by potrace 1.14, written by Peter Selinger 2001-2017
</metadata>
<g transform="translate(0.000000,96.000000) scale(0.100000,-0.100000)"
fill="#000000" stroke="none">
<path d="M57 863 c-17 -16 -3 -31 53 -58 55 -26 59 -31 54 -54 -4 -14 -9 -68
-11 -118 -5 -92 -5 -93 19 -93 22 0 23 3 23 68 -1 55 10 137 20 150 2 3 84
-14 116 -24 10 -3 18 3 22 14 4 16 -10 26 -70 57 -41 20 -105 43 -142 51 -77
16 -76 16 -84 7z"/>
<path d="M825 845 c-54 -12 -151 -53 -182 -77 -12 -9 -7 -41 6 -34 3 2 22 7
41 10 19 3 44 8 56 10 17 4 20 0 19 -27 -3 -43 2 -53 25 -54 18 -2 20 5 20 51
l0 52 55 27 c39 19 53 31 49 42 -7 17 -9 17 -89 0z"/>
<path d="M392 631 c-11 -29 13 -46 69 -47 30 0 78 -4 108 -8 47 -7 53 -6 48 8
-4 9 -2 16 4 16 6 0 9 10 7 22 -3 22 -7 23 -117 23 -88 0 -115 -3 -119 -14z"/>
<path d="M660 623 c0 -13 4 -23 9 -23 5 0 7 -14 6 -31 -3 -35 48 -119 72 -119
16 0 15 8 18 -125 2 -128 29 -220 65 -222 25 -2 25 0 0 79 -14 45 -20 91 -20
166 l0 102 60 0 c52 0 60 3 60 18 0 10 -3 22 -7 26 -11 10 -10 106 0 106 5 0
7 10 5 22 -3 22 -6 23 -135 23 -132 0 -133 0 -133 -22z"/>
<path d="M417 545 c-102 -35 -150 -116 -145 -245 2 -36 -4 -93 -13 -127 -13
-50 -14 -63 -3 -67 9 -3 20 14 35 53 l21 58 26 -25 c79 -73 217 -72 286 3 l23
25 23 -60 c21 -56 33 -71 43 -53 2 5 -4 42 -14 83 -12 50 -16 92 -13 126 11
90 -26 165 -100 209 -51 30 -117 38 -169 20z m120 -46 c111 -42 141 -183 57
-270 -115 -120 -323 7 -269 165 31 90 127 138 212 105z"/>
<path d="M522 318 c-18 -18 -14 -46 8 -58 28 -15 65 22 50 50 -12 22 -40 26
-58 8z"/>
<path d="M60 485 c0 -14 3 -25 8 -25 4 0 7 -36 7 -80 0 -44 -3 -80 -7 -80 -5
0 -8 -10 -8 -23 0 -21 4 -23 41 -22 52 2 56 -9 30 -80 -26 -68 -26 -70 -2 -72
14 -1 25 12 41 49 12 28 23 60 26 72 2 11 10 26 17 31 10 7 13 31 12 77 0 37
5 89 12 115 6 27 12 51 13 56 0 4 -43 7 -95 7 -95 0 -95 0 -95 -25z"/>
</g>
</svg>
